<svg width="200" height="200" viewBox="0 0 200 200" fill="none" xmlns="http://www.w3.org/2000/svg">
<path fill-rule="evenodd" clip-rule="evenodd" d="M98.8261 32.9368L65.8816 65.8813L32.9448 32.9368L65.8816 0L98.8261 32.9368Z" fill="#F3EB59"/>
<path fill-rule="evenodd" clip-rule="evenodd" d="M200 65.8809L167.055 98.8216L134.119 65.8809L167.055 32.9364L200 65.8809Z" fill="#95D6E5"/>
<path fill-rule="evenodd" clip-rule="evenodd" d="M65.8852 134.11L32.9445 167.051L0 134.11L32.9445 101.174L65.8852 134.11Z" fill="#F69973"/>
<path fill-rule="evenodd" clip-rule="evenodd" d="M167.059 167.051L134.118 200L101.174 167.055L134.118 134.115L167.059 167.051Z" fill="#745DA7"/>
<path fill-rule="evenodd" clip-rule="evenodd" d="M65.8855 134.111L32.9448 101.174V32.9407L65.8855 65.8852V134.111Z" fill="#F9D84F"/>
<path fill-rule="evenodd" clip-rule="evenodd" d="M167.059 167.051L134.119 134.115V65.8853L167.059 98.8259V167.051Z" fill="#62C4B8"/>
<path fill-rule="evenodd" clip-rule="evenodd" d="M65.8855 65.8809L98.83 32.9364H167.06L134.119 65.8809H65.8855Z" fill="#3BC2E5"/>
<path fill-rule="evenodd" clip-rule="evenodd" d="M32.9448 167.051L65.8816 134.115H134.111L101.178 167.055L32.9448 167.051Z" fill="#F16F74"/>
</svg>
