<svg width="50" height="50" viewBox="0 0 50 50" fill="none" xmlns="http://www.w3.org/2000/svg">
<path fill-rule="evenodd" clip-rule="evenodd" d="M24.7067 8.23419L16.4705 16.4703L8.23633 8.23419L16.4705 0L24.7067 8.23419Z" fill="#F3EB59"/>
<path fill-rule="evenodd" clip-rule="evenodd" d="M50.0001 16.4703L41.764 24.7054L33.5298 16.4703L41.764 8.23413L50.0001 16.4703Z" fill="#95D6E5"/>
<path fill-rule="evenodd" clip-rule="evenodd" d="M16.4713 33.5277L8.23614 41.7628L0 33.5277L8.23614 25.2935L16.4713 33.5277Z" fill="#F69973"/>
<path fill-rule="evenodd" clip-rule="evenodd" d="M41.7648 41.7629L33.5296 50L25.2935 41.7639L33.5296 33.5287L41.7648 41.7629Z" fill="#745DA7"/>
<path fill-rule="evenodd" clip-rule="evenodd" d="M16.4715 33.5277L8.23633 25.2935V8.23511L16.4715 16.4712V33.5277Z" fill="#F9D84F"/>
<path fill-rule="evenodd" clip-rule="evenodd" d="M41.7649 41.7629L33.5298 33.5287V16.4713L41.7649 24.7065V41.7629Z" fill="#62C4B8"/>
<path fill-rule="evenodd" clip-rule="evenodd" d="M16.4714 16.4703L24.7076 8.23413H41.765L33.5298 16.4703H16.4714Z" fill="#3BC2E5"/>
<path fill-rule="evenodd" clip-rule="evenodd" d="M8.23633 41.7629L16.4705 33.5287H33.5279L25.2947 41.7639L8.23633 41.7629Z" fill="#F16F74"/>
</svg>
